<?xml version="1.0" encoding="UTF-8"?>
<!DOCTYPE svg PUBLIC "-//W3C//DTD SVG 1.1//EN" "http://www.w3.org/Graphics/SVG/1.1/DTD/svg11.dtd">
<!-- Creator: CorelDRAW 2021 (64 Bit) -->
<svg xmlns="http://www.w3.org/2000/svg" xml:space="preserve" width="42.3332mm" height="42.3332mm" version="1.1" style="shape-rendering:geometricPrecision; text-rendering:geometricPrecision; image-rendering:optimizeQuality; fill-rule:evenodd; clip-rule:evenodd"
viewBox="0 0 4233.32 4233.32"
 xmlns:xlink="http://www.w3.org/1999/xlink"
 xmlns:xodm="http://www.corel.com/coreldraw/odm/2003">
 <defs>
  <style type="text/css">
   <![CDATA[
    .fil0 {fill:#FE7557}
   ]]>
  </style>
 </defs>
 <g id="Camada_x0020_1">
  <metadata id="CorelCorpID_0Corel-Layer"/>
  <g id="_2620097486176">
   <path class="fil0" d="M125.6 1731.29c76.25,17.77 155.23,38.11 231.19,54.36 81.53,17.44 167.14,32.57 232.41,41.59 146.28,20.23 275.48,33.16 424.35,34.28l142.29 0.52c44.17,-2.58 89.89,2.87 133.25,-2.07 61.76,-7.05 164.66,-14.88 239.39,-23.15 80.47,-8.9 157.7,-23.47 234.31,-38.79 34.44,-6.9 76.9,-14.25 112.59,-23.99 138.09,-37.69 229.51,-59.88 370.96,-107.01 21.25,-7.07 28.28,-11.17 49.52,-18.75 105.86,-37.77 188.28,-75.98 288.56,-121.13 172.28,-77.57 218.49,-117.99 353.17,-186.88l84.34 -52.22c165.22,-108.55 239.16,-156.51 398.97,-283.83l164 -140.17c5.4,-4.84 5.65,-4.87 10.05,-8.58l234.12 -225.21c0.85,-0.96 2.04,-2.37 2.89,-3.33l14.92 -16.12c1.4,-1.51 95.42,-98.22 127.3,-145.82 -68.53,-45.89 -215.09,-114.62 -289.08,-145.44 -102.36,-42.62 -219.16,-87.7 -324.83,-115.89l-172.83 -44.43c-189.1,-45.09 -320.54,-59.99 -513.52,-69.07 -173.95,-8.18 -363.69,2.75 -538.58,38.02 -150.07,30.25 -273.72,66.11 -402.75,112.62l-179.38 75.12c-217.1,106.93 -480.77,272.99 -653.37,439.14 -13.08,12.6 -20.8,21.8 -33.89,34.39l-371.56 398.15c-95.96,122.09 -186.83,250.37 -270.7,381.08 -17.35,27.05 -31.7,54.25 -50.23,80.13l-47.86 82.48z"/>
   <path class="fil0" d="M411.13 2432.73c8.2,98.45 234.49,349.09 312.21,414.06 19,15.89 25.27,19.26 43.15,37.55 43.44,44.46 211.23,176.57 269.83,220.55 146.76,110.17 324.79,234.32 482.35,330.82 19.43,11.9 31.23,18.12 50.63,30.06l575.86 318.01 333.9 156.48c78.6,32.22 157.1,63.54 235.91,93.08 201.88,75.66 683.29,230.18 838.79,52.23 112.13,-128.31 -27.07,-414.65 -85.97,-513.31 -16.27,-27.26 -26.07,-47.99 -42.55,-75.38l-147.59 -224.86c-96.3,-144.52 -175.07,-223.6 -270.9,-343.62 -16.82,-21.07 -41.36,-42.75 -61.5,-62.65 -23.24,-22.99 -34.97,-42.03 -58.78,-65.37l-480.58 -376.03c-85.74,-46.49 -109.29,-62.64 -200.73,-103.44 -14.58,-6.5 -25.09,-13.19 -41.74,-20.34 -106.8,-45.8 -168.53,-62.69 -278.47,-93.97 -116.74,-33.22 -274.92,-51.44 -396.7,-55.05 -82.74,-2.45 -201.12,3.85 -288.74,13.9 -135.82,15.58 -171.09,31.21 -285.03,56.77 -67.21,15.08 -88.86,29.77 -132.17,41.64 -118.41,32.45 -369.47,168.41 -371.18,168.87z"/>
  </g>
 </g>
</svg>
